{"title":"Indiana Jones and the Last Crusade(1989)MP-4[DaScubaDude]","uid":12964610,"size":1264516257,"categoryP":"video","categoryS":"movies","magnet":"?xt=urn:btih:41be2a2f32e4c26ce1b1dabbbe3e7c1fa771bd0a&amp;dn=Indiana+Jones+and+the+Last+Crusade%281989%29MP-4%5BDaScubaDude%5D&amp;tr=udp%3A%2F%2Ftracker.leechers-paradise.org%3A6969&amp;tr=udp%3A%2F%2Fzer0day.ch%3A1337&amp;tr=udp%3A%2F%2Fopen.demonii.com%3A1337&amp;tr=udp%3A%2F%2Ftracker.coppersurfer.tk%3A6969&amp;tr=udp%3A%2F%2Fexodus.desync.com%3A6969","seeders":0,"leechers":1,"uploader":"dascuba","files":1,"time":1449879980,"description":"When Dr. Henry Jones Sr. suddenly goes missing while pursuing the Holy Grail, eminent archaeologist Indiana Jones must follow in his father's footsteps and stop the Nazis.\r\nDirector: Steven Spielberg\r\nWriters: Jeffrey Boam (screenplay), George Lucas (story) | 3 more credits »\r\nStars: Harrison Ford, Sean Connery, Alison Doody \r\n\r\n\r\nGeneral\r\nComplete name                            :Indiana Jones and the Last CrusadeINDY_LASTCRUSADE_AC_Title1.mp4\r\nFormat                                   : MPEG-4\r\nFormat profile                           : Base Media\r\nCodec ID                                 : isom\r\nFile size                                : 1.18 GiB\r\nDuration                                 : 2h 6mn\r\nOverall bit rate                         : 1 330 Kbps\r\nMovie name                               : INDY_LASTCRUSADE_AC\r\nGenre                                    : Action\r\nWriting application                      : Lavf54.6.100\r\n\r\nVideo\r\nID                                       : 1\r\nFormat                                   : AVC\r\nFormat/Info                              : Advanced Video Codec\r\nFormat profile                           :   \r\nFormat settings, CABAC                   : No\r\nFormat settings, ReFrames                : 6 frames\r\nFormat settings, GOP                     : M=1, N=60\r\nCodec ID                                 : avc1\r\nCodec ID/Info                            : Advanced Video Coding\r\nDuration                                 : 2h 6mn\r\nBit rate                                 : 1 195 Kbps\r\nWidth                                    : 720 pixels\r\nHeight                                   : 404 pixels\r\nDisplay aspect ratio                     : 16:9\r\nFrame rate mode                          : Constant\r\nFrame rate                               : 29.970 fps\r\nColor space                              : YUV\r\nChroma subsampling                       : 4:2:0\r\nBit depth                                : 8 bits\r\nScan type                                : Progressive\r\nBits/(Pixel*Frame)                       : 0.137\r\nStream size                              : 1.06 GiB (90%)\r\n\r\nAudio\r\nID                                       : 2\r\nFormat                                   : AAC\r\nFormat/Info                              : Advanced Audio Codec\r\nFormat profile                           : LC\r\nCodec ID                                 : 40\r\nDuration                                 : 2h 6mn\r\nBit rate mode                            : Constant\r\nBit rate                                 : 128 Kbps\r\nChannel(s)                               : 2 channels\r\nChannel positions                        : Front: L R\r\nSampling rate                            : 44.1 KHz\r\nCompression mode                         : Lossy\r\nStream size                              : 116 MiB (10%)","torrent":{"xt":"urn:btih:41be2a2f32e4c26ce1b1dabbbe3e7c1fa771bd0a","amp;dn":"Indiana+Jones+and+the+Last+Crusade%281989%29MP-4%5BDaScubaDude%5D","amp;tr":["udp%3A%2F%2Ftracker.leechers-paradise.org%3A6969","udp%3A%2F%2Fzer0day.ch%3A1337","udp%3A%2F%2Fopen.demonii.com%3A1337","udp%3A%2F%2Ftracker.coppersurfer.tk%3A6969","udp%3A%2F%2Fexodus.desync.com%3A6969"],"infoHash":"41be2a2f32e4c26ce1b1dabbbe3e7c1fa771bd0a","infoHashBuffer":{"type":"Buffer","data":[65,190,42,47,50,228,194,108,225,177,218,187,190,62,124,31,167,113,189,10]},"announce":[],"urlList":[]}}